<svg width="700" height="466" viewBox="0 0 700 466" fill="none" xmlns="http://www.w3.org/2000/svg">
<g clip-path="url(#clip0_10_33)">
<path d="M251.09 267.726C275.079 225.527 320.839 193.124 369.28 196.246C333.548 235.102 312.713 285.344 310.459 338.083C309.664 358.426 310.897 381.134 297.391 396.367C288.986 405.845 276.141 410.435 263.51 411.398C250.88 412.36 238.252 410.078 225.79 407.806L222.766 408.734C221.616 360.206 227.101 309.926 251.09 267.726Z" fill="#F0F0F0"/>
<path d="M369.352 197.262C333.531 214.506 302.987 243.306 284.236 278.43C280.183 286.023 276.731 294.079 275.226 302.597C273.72 311.118 274.772 319.23 277.682 327.324C280.343 334.723 283.922 341.984 284.738 349.901C285.598 358.246 282.527 366.049 277 372.241C270.238 379.818 261.156 384.514 252.115 388.797C242.077 393.552 231.575 398.332 224.465 407.207C223.604 408.283 221.986 406.883 222.846 405.809C235.216 390.368 256.39 387.465 271.073 375.027C277.924 369.223 283.068 361.319 282.743 352.057C282.46 343.958 278.776 336.468 276.017 329C273.12 321.158 271.675 313.273 272.714 304.912C273.777 296.359 276.92 288.151 280.762 280.487C289.426 263.203 301.284 247.335 314.867 233.618C330.478 217.85 348.671 204.87 368.659 195.237C369.896 194.642 370.581 196.67 369.352 197.262Z" fill="white"/>
<path d="M289.729 266.691C284.237 262.676 280.352 256.839 278.767 250.224C277.181 243.608 277.999 236.644 281.074 230.576C281.701 229.35 283.635 230.266 283.007 231.494C280.133 237.139 279.372 243.626 280.861 249.783C282.35 255.941 285.991 261.363 291.127 265.072C292.242 265.879 290.837 267.494 289.729 266.691Z" fill="white"/>
<path d="M275.839 323.75C289.599 321.739 302.096 314.616 310.838 303.801C311.703 302.728 313.322 304.128 312.458 305.199C303.34 316.436 290.32 323.823 275.996 325.884C274.63 326.079 274.481 323.944 275.839 323.75V323.75Z" fill="white"/>
<path d="M331.534 220.483C333.336 222.479 335.604 223.997 338.137 224.9C340.669 225.803 343.387 226.063 346.044 225.656C347.407 225.443 347.554 227.578 346.201 227.79C343.263 228.225 340.262 227.935 337.462 226.943C334.661 225.952 332.146 224.29 330.137 222.102C329.93 221.912 329.803 221.65 329.783 221.37C329.762 221.09 329.849 220.812 330.026 220.594C330.212 220.38 330.475 220.249 330.757 220.228C331.04 220.207 331.319 220.299 331.534 220.483Z" fill="white"/>
<path d="M465.661 329.37C464.815 329.527 463.968 329.684 463.113 329.857C451.739 332.027 440.56 335.117 429.686 339.097C428.84 339.392 427.988 339.703 427.152 340.021C401.057 349.889 377.021 364.517 356.265 383.16C348.013 390.586 340.337 398.629 333.305 407.219C323.595 419.084 314.01 432.721 301.32 440.456C300.005 441.278 298.641 442.018 297.234 442.671L224.133 412.35C224.002 412.198 223.862 412.062 223.73 411.909L220.756 410.832C221.088 410.363 221.442 409.885 221.774 409.416C221.965 409.144 222.172 408.878 222.364 408.606C222.496 408.426 222.63 408.247 222.739 408.077C222.783 408.017 222.828 407.958 222.865 407.914C222.975 407.745 223.094 407.599 223.197 407.446C225.169 404.765 227.163 402.093 229.18 399.431C229.187 399.414 229.187 399.414 229.21 399.404C244.627 379.155 261.87 360.016 281.47 344.102C282.06 343.623 282.656 343.127 283.279 342.663C292.154 335.538 301.596 329.151 311.511 323.565C316.95 320.524 322.54 317.76 328.258 315.284C343.046 308.915 358.744 304.911 374.777 303.42C406.737 300.452 439.291 307.739 463.804 327.817C464.43 328.331 465.042 328.839 465.661 329.37Z" fill="#F0F0F0"/>
<path d="M465.112 330.229C426.129 322.431 384.402 327.037 348.284 343.792C340.475 347.415 332.869 351.769 326.539 357.663C320.206 363.56 316.162 370.671 313.613 378.885C311.283 386.395 309.769 394.347 305.654 401.16C301.316 408.34 294.166 412.722 286.025 414.339C276.063 416.317 265.985 414.598 256.188 412.575C245.31 410.328 234.047 407.822 223.027 410.628C221.692 410.968 221.242 408.876 222.575 408.536C241.749 403.655 260.403 414.085 279.615 412.994C288.58 412.485 297.446 409.271 302.763 401.681C307.412 395.043 308.98 386.845 311.274 379.221C313.683 371.215 317.276 364.049 323.14 357.999C329.138 351.81 336.589 347.149 344.271 343.343C361.595 334.759 380.616 329.228 399.72 326.454C421.678 323.263 444.019 323.853 465.778 328.196C467.125 328.465 466.45 330.497 465.112 330.229V330.229Z" fill="white"/>
<path d="M359.736 337.726C357.769 331.214 358.181 324.215 360.898 317.978C363.616 311.741 368.461 306.674 374.57 303.68C375.808 303.078 376.801 304.974 375.561 305.576C369.868 308.354 365.354 313.075 362.836 318.887C360.318 324.7 359.96 331.222 361.828 337.275C362.232 338.591 360.139 339.035 359.736 337.726Z" fill="white"/>
<path d="M314.293 374.922C326.491 381.601 340.757 383.438 354.249 380.065C355.585 379.73 356.035 381.822 354.7 382.157C340.654 385.64 325.811 383.698 313.134 376.72C311.926 376.054 313.092 374.26 314.293 374.922Z" fill="white"/>
<path d="M420.937 326.001C421.173 328.68 422.07 331.258 423.549 333.503C425.027 335.749 427.041 337.592 429.407 338.868C430.623 339.518 429.456 341.312 428.248 340.666C425.639 339.244 423.419 337.206 421.78 334.728C420.14 332.251 419.133 329.41 418.845 326.453C418.795 326.177 418.852 325.891 419.004 325.655C419.156 325.419 419.393 325.25 419.665 325.182C419.943 325.123 420.232 325.177 420.47 325.33C420.708 325.484 420.876 325.725 420.937 326.001Z" fill="white"/>
<path d="M326.409 379.394C316.171 329.893 303.374 313.39 303.374 313.39L298.485 309.598L292.606 305.032L292.634 304.445L291.24 303.971L290.912 303.716L290.376 303.304L290.289 303.397L290.107 303.585L263.503 294.542L229.751 283.078L214.122 262.763C211.577 259.454 208.3 256.78 204.548 254.95C200.796 253.12 196.671 252.184 192.497 252.215L142.582 252.584C135.833 252.634 129.347 255.207 124.399 259.797L91.5909 290.229L40.4697 314.644L40.3834 314.558L39.8466 314.941L31.9479 318.718L32.2739 320.414L27.3851 323.942C27.3851 323.942 14.588 339.299 4.35035 385.358C1.746 397.078 0.464048 422.219 0.00133085 453.198C-0.0219114 454.766 0.26663 456.322 0.850171 457.776C1.43371 459.231 2.30061 460.555 3.40047 461.672C4.50033 462.788 5.81119 463.675 7.25685 464.281C8.70251 464.886 10.2541 465.198 11.8214 465.199H284.87V465.199H318.95C320.516 465.198 322.066 464.886 323.511 464.281C324.956 463.676 326.266 462.791 327.366 461.676C328.465 460.56 329.333 459.238 329.917 457.785C330.501 456.331 330.791 454.777 330.77 453.211C330.318 419.5 329.037 392.104 326.409 379.394Z" fill="#3F3D56"/>
<path d="M361.442 43.1687C350.819 43.1687 340.631 47.3887 333.119 54.9004C325.607 62.4122 321.387 72.6003 321.387 83.2234C321.387 93.8466 325.607 104.035 333.119 111.546C340.631 119.058 350.819 123.278 361.442 123.278H659.945C670.568 123.278 680.756 119.058 688.268 111.546C695.78 104.035 700 93.8466 700 83.2234C700 72.6003 695.78 62.4122 688.268 54.9004C680.756 47.3887 670.568 43.1687 659.945 43.1687H361.442Z" fill="#E5E5E5"/>
<path d="M361.442 51.275C352.969 51.275 344.842 54.641 338.851 60.6325C332.859 66.624 329.493 74.7502 329.493 83.2235C329.493 91.6967 332.859 99.8229 338.851 105.814C344.842 111.806 352.969 115.172 361.442 115.172H659.945C668.418 115.172 676.545 111.806 682.536 105.814C688.528 99.8229 691.894 91.6967 691.894 83.2235C691.894 74.7502 688.528 66.624 682.536 60.6325C676.545 54.641 668.418 51.275 659.945 51.275H361.442Z" fill="white"/>
<path d="M175.378 233.463C211.494 233.463 240.771 204.186 240.771 168.07C240.771 131.955 211.494 102.677 175.378 102.677C139.263 102.677 109.985 131.955 109.985 168.07C109.985 204.186 139.263 233.463 175.378 233.463Z" fill="#9E616A"/>
<path d="M158.649 230.261C158.37 229.646 158.092 229.029 157.814 228.41C157.921 228.413 158.027 228.428 158.134 228.431L158.649 230.261Z" fill="#2F2E41"/>
<path d="M108.167 105.651C111.474 103.013 115.34 100.585 119.569 100.722C123.797 100.858 128.085 104.677 127.209 108.816C134.976 95.064 147.339 84.487 162.127 78.9417C176.916 73.3964 193.185 73.2372 208.079 78.492C218.589 82.2 228.896 89.618 231.31 100.498C231.93 103.291 232.063 106.353 233.806 108.621C236.005 111.481 240.212 112.128 243.676 111.122C243.711 111.112 243.745 111.102 243.78 111.091C244.365 110.891 244.997 110.872 245.593 111.035C246.19 111.198 246.723 111.536 247.125 112.006C247.528 112.476 247.779 113.055 247.849 113.67C247.918 114.284 247.801 114.905 247.513 115.453L244.539 120.999C248.288 121.834 252.183 121.751 255.893 120.757C256.509 120.596 257.16 120.629 257.757 120.852C258.353 121.075 258.867 121.477 259.226 122.003C259.585 122.53 259.772 123.154 259.762 123.791C259.753 124.428 259.546 125.046 259.171 125.561C249.365 139.024 232.983 147.717 216.266 147.615C204.385 147.542 192.381 143.447 180.817 146.18C176.344 147.237 172.164 149.282 168.584 152.165C165.004 155.048 162.115 158.696 160.129 162.842C158.143 166.987 157.11 171.525 157.106 176.121C157.102 180.718 158.127 185.257 160.107 189.406C156.554 185.52 149.687 186.44 146.053 190.25C142.42 194.06 141.479 199.746 141.845 204.998C142.405 213.03 145.552 220.599 148.87 227.966C121.053 227.091 94.7423 207.577 85.8861 181.185C76.9927 154.682 86.3132 123.085 108.167 105.651Z" fill="#2F2E41"/>
<path opacity="0.2" d="M64.3635 364.449L82.7047 464.24L93.7098 465.199L64.3635 364.449Z" fill="black"/>
<path opacity="0.2" d="M266.396 356.923L248.054 464.168L237.049 465.199L266.396 356.923Z" fill="black"/>
<path d="M123.811 72.0667C120.294 73.5352 116.624 71.9259 115.085 68.2404C113.523 64.4986 114.982 60.7002 118.555 59.2082C122.129 57.7161 125.733 59.3294 127.32 63.1315C128.884 66.8766 127.441 70.5508 123.811 72.0667ZM117.074 51.8432L114.278 53.0107C113.579 53.299 112.798 53.3145 112.089 53.0543C111.379 52.7941 110.793 52.2771 110.447 51.6056L110.309 51.3351C107.3 45.9091 106.955 39.3146 109.29 31.7451C111.453 24.9549 112.351 20.1793 110.545 15.8529C108.456 10.8508 103.996 9.2839 98.308 11.5538C96.1021 12.4749 95.4001 12.4602 93.6641 14.1823C93.2865 14.5615 92.8364 14.8607 92.3406 15.0622C91.8449 15.2636 91.3136 15.3632 90.7785 15.3549C90.2613 15.3488 89.7506 15.2386 89.2768 15.0309C88.8031 14.8232 88.376 14.5222 88.0211 14.1459C87.3373 13.4206 86.9542 12.4629 86.9492 11.4662C86.9442 10.4695 87.3176 9.50797 87.994 8.77587C90.9119 5.72139 94.4313 3.3049 98.33 1.67891C110.55 -3.42394 116.702 4.10968 119.518 10.8516C122.271 17.4459 120.722 23.5643 118.233 31.4883C116.148 38.0726 116.269 42.9515 118.638 47.8027C118.809 48.1694 118.905 48.567 118.918 48.9714C118.932 49.3759 118.863 49.7789 118.717 50.1563C118.571 50.5336 118.35 50.8776 118.068 51.1675C117.786 51.4573 117.448 51.6872 117.074 51.8431L117.074 51.8432Z" fill="#219653"/>
<path d="M427.377 102.327H367.986C367.798 102.328 367.611 102.292 367.436 102.221C367.261 102.149 367.102 102.044 366.969 101.911C366.835 101.778 366.728 101.62 366.656 101.446C366.583 101.272 366.546 101.085 366.546 100.896C366.546 100.708 366.583 100.521 366.656 100.347C366.728 100.172 366.835 100.014 366.969 99.8813C367.102 99.7484 367.261 99.6432 367.436 99.5719C367.611 99.5006 367.798 99.4645 367.986 99.4658H427.377C427.755 99.4684 428.117 99.6202 428.383 99.8882C428.649 100.156 428.798 100.519 428.798 100.896C428.798 101.274 428.649 101.636 428.383 101.904C428.117 102.172 427.755 102.324 427.377 102.327Z" fill="#219653"/>
<path d="M502.719 102.804H443.327C443.139 102.805 442.952 102.769 442.777 102.698C442.602 102.626 442.444 102.521 442.31 102.388C442.176 102.255 442.069 102.097 441.997 101.923C441.924 101.749 441.887 101.562 441.887 101.373C441.887 101.184 441.924 100.998 441.997 100.823C442.069 100.649 442.176 100.491 442.31 100.358C442.444 100.225 442.602 100.12 442.777 100.049C442.952 99.9774 443.139 99.9413 443.327 99.9426H502.719C502.907 99.9413 503.094 99.9774 503.269 100.049C503.444 100.12 503.603 100.225 503.736 100.358C503.87 100.491 503.977 100.649 504.049 100.823C504.122 100.998 504.159 101.184 504.159 101.373C504.159 101.562 504.122 101.749 504.049 101.923C503.977 102.097 503.87 102.255 503.736 102.388C503.603 102.521 503.444 102.626 503.269 102.698C503.094 102.769 502.907 102.805 502.719 102.804Z" fill="#219653"/>
<path d="M578.06 103.28H518.669C518.291 103.278 517.929 103.126 517.663 102.858C517.397 102.59 517.248 102.228 517.248 101.85C517.248 101.472 517.397 101.11 517.663 100.842C517.929 100.574 518.291 100.422 518.669 100.419H578.06C578.248 100.418 578.435 100.454 578.61 100.526C578.785 100.597 578.944 100.702 579.077 100.835C579.211 100.968 579.318 101.126 579.39 101.3C579.463 101.474 579.5 101.661 579.5 101.85C579.5 102.039 579.463 102.225 579.39 102.4C579.318 102.574 579.211 102.732 579.077 102.865C578.944 102.998 578.785 103.103 578.61 103.174C578.435 103.246 578.248 103.282 578.06 103.28H578.06Z" fill="#219653"/>
<path d="M653.401 103.757H594.01C593.632 103.755 593.271 103.603 593.004 103.335C592.738 103.067 592.589 102.705 592.589 102.327C592.589 101.949 592.738 101.587 593.004 101.319C593.271 101.051 593.632 100.899 594.01 100.896H653.401C653.778 100.899 654.14 101.051 654.406 101.319C654.672 101.587 654.822 101.949 654.822 102.327C654.822 102.705 654.672 103.067 654.406 103.335C654.14 103.603 653.778 103.755 653.401 103.757Z" fill="#219653"/>
<path d="M397.551 89.1615C403.647 89.1615 408.589 84.2195 408.589 78.1232C408.589 72.0269 403.647 67.0849 397.551 67.0849C391.455 67.0849 386.513 72.0269 386.513 78.1232C386.513 84.2195 391.455 89.1615 397.551 89.1615Z" fill="#219653"/>
<path d="M473.347 89.1615C479.444 89.1615 484.386 84.2195 484.386 78.1232C484.386 72.0269 479.444 67.0849 473.347 67.0849C467.251 67.0849 462.309 72.0269 462.309 78.1232C462.309 84.2195 467.251 89.1615 473.347 89.1615Z" fill="#219653"/>
<path d="M549.144 89.1615C555.24 89.1615 560.182 84.2195 560.182 78.1232C560.182 72.0269 555.24 67.0849 549.144 67.0849C543.047 67.0849 538.105 72.0269 538.105 78.1232C538.105 84.2195 543.047 89.1615 549.144 89.1615Z" fill="#219653"/>
<path d="M624.94 89.1615C631.036 89.1615 635.978 84.2195 635.978 78.1232C635.978 72.0269 631.036 67.0849 624.94 67.0849C618.843 67.0849 613.901 72.0269 613.901 78.1232C613.901 84.2195 618.843 89.1615 624.94 89.1615Z" fill="#219653"/>
</g>
<defs>
<clipPath id="clip0_10_33">
<rect width="700" height="465.199" fill="white"/>
</clipPath>
</defs>
</svg>
