<svg width="700" height="419" viewBox="0 0 700 419" fill="none" xmlns="http://www.w3.org/2000/svg">
<g clip-path="url(#clip0_3_321)">
<path d="M535.936 413.77C526.975 406.197 521.531 394.234 522.959 382.589C524.386 370.943 533.228 360.237 544.697 357.764C556.167 355.291 569.241 362.137 572.725 373.34C574.642 351.74 576.851 329.234 588.335 310.839C598.734 294.183 616.745 282.265 636.264 280.133C655.784 278.001 676.335 286.054 688.509 301.46C700.683 316.867 703.663 339.265 695.137 356.953C688.856 369.983 677.285 379.68 665.161 387.569C625.983 412.847 578.995 423.127 532.841 416.516L535.936 413.77Z" fill="#F2F2F2"/>
<path d="M669.206 286.5C653.1 299.619 638.325 314.291 625.093 330.304C604.386 355.28 587.63 383.281 575.408 413.334C574.513 415.526 578.073 416.481 578.958 414.313C598.955 365.471 630.879 322.422 671.81 289.104C673.648 287.607 671.029 285.016 669.206 286.5Z" fill="white"/>
<path d="M225.341 411.712C237.65 401.311 245.127 384.88 243.166 368.885C241.206 352.89 229.061 338.185 213.308 334.788C197.555 331.391 179.598 340.794 174.813 356.182C172.18 326.514 169.145 295.603 153.372 270.337C139.089 247.46 114.351 231.091 87.5412 228.162C60.7311 225.234 32.5035 236.294 15.783 257.455C-0.937434 278.616 -5.03137 309.38 6.67921 333.674C15.306 351.571 31.1996 364.89 47.8521 375.726C100.979 410.295 166.884 424.713 229.592 415.485" fill="#F2F2F2"/>
<path d="M42.2951 236.907C64.4167 254.926 84.711 275.078 102.884 297.072C121.061 319.044 137.063 342.727 150.666 367.789C158.27 381.848 165.101 396.311 171.128 411.114C172.356 414.125 167.467 415.436 166.251 412.458C155.576 386.36 142.369 361.371 126.819 337.85C111.344 314.414 93.6331 292.534 73.9337 272.518C62.7916 261.202 51.0358 250.508 38.7194 240.483C36.1949 238.427 39.7914 234.869 42.2951 236.907L42.2951 236.907Z" fill="white"/>
<path d="M502.471 417.586H208.793V116.264C208.793 52.1559 260.949 0 325.057 0H386.207C450.315 0 502.471 52.1559 502.471 116.264V417.586Z" fill="#F2F2F2"/>
<path d="M441.322 417.586H208.793V116.264C208.729 91.6995 216.508 67.7554 230.997 47.9184C231.531 47.1904 232.063 46.4718 232.613 45.7611C239.621 36.5694 247.961 28.4745 257.358 21.7434C257.888 21.3572 258.421 20.9777 258.962 20.5982C266.825 15.157 275.33 10.709 284.284 7.35531C284.816 7.15377 285.358 6.95183 285.899 6.75814C293.997 3.86808 302.392 1.88841 310.929 0.855672C311.458 0.783379 312.001 0.726809 312.545 0.670237C320.863 -0.219221 329.253 -0.219221 337.572 0.670237C338.114 0.726809 338.657 0.783372 339.193 0.856445C347.727 1.88925 356.119 3.86868 364.216 6.75818C364.757 6.95187 365.299 7.15379 365.832 7.35573C374.676 10.6671 383.081 15.0488 390.86 20.4029C391.401 20.7742 391.942 21.1537 392.475 21.5332C397.742 25.2929 402.689 29.4814 407.266 34.056C410.936 37.7253 414.357 41.6366 417.504 45.7635C418.052 46.4719 418.584 47.1904 419.117 47.9172C433.607 67.7545 441.386 91.699 441.322 116.264V417.586Z" fill="#CCCCCC"/>
<path d="M422.414 282.816C429.524 282.816 435.287 277.052 435.287 269.943C435.287 262.833 429.524 257.069 422.414 257.069C415.304 257.069 409.54 262.833 409.54 269.943C409.54 277.052 415.304 282.816 422.414 282.816Z" fill="#219653"/>
<path d="M478.413 408.561H468.549L463.855 370.513L478.415 370.514L478.413 408.561Z" fill="#FFB8B8"/>
<path d="M461.503 405.742H480.526V417.72H449.525C449.525 416.147 449.834 414.59 450.436 413.137C451.038 411.683 451.921 410.363 453.033 409.251C454.145 408.138 455.466 407.256 456.919 406.654C458.372 406.052 459.93 405.742 461.503 405.742Z" fill="#2F2E41"/>
<path d="M527.494 408.561H517.629L512.936 370.513L527.495 370.514L527.494 408.561Z" fill="#FFB8B8"/>
<path d="M510.583 405.742H529.607V417.72H498.605C498.605 416.147 498.915 414.59 499.517 413.137C500.119 411.683 501.001 410.363 502.113 409.251C503.226 408.138 504.546 407.256 505.999 406.654C507.452 406.052 509.01 405.742 510.583 405.742Z" fill="#2F2E41"/>
<path d="M428.929 272.493C428.22 271.447 427.748 270.259 427.547 269.011C427.346 267.764 427.422 266.487 427.768 265.272C428.114 264.057 428.722 262.932 429.55 261.977C430.377 261.022 431.404 260.26 432.558 259.746L466.091 167.324L482.591 176.329L444.304 264.65C445.041 266.646 445.02 268.843 444.245 270.824C443.47 272.805 441.995 274.434 440.1 275.4C438.205 276.367 436.021 276.605 433.962 276.069C431.903 275.533 430.113 274.261 428.929 272.493Z" fill="#FFB8B8"/>
<path d="M522.455 289.859C521.358 289.231 520.413 288.369 519.686 287.336C518.959 286.303 518.467 285.123 518.245 283.879C518.023 282.635 518.076 281.357 518.401 280.136C518.727 278.915 519.316 277.78 520.127 276.811L509.739 179.045L528.516 179.903L532.834 276.069C534.371 277.54 535.315 279.523 535.488 281.644C535.66 283.764 535.049 285.874 533.769 287.574C532.49 289.274 530.632 290.445 528.546 290.867C526.461 291.288 524.293 290.929 522.455 289.859Z" fill="#FFB8B8"/>
<path d="M492.499 150.205C503.413 150.205 512.261 141.358 512.261 130.443C512.261 119.529 503.413 110.682 492.499 110.682C481.585 110.682 472.737 119.529 472.737 130.443C472.737 141.358 481.585 150.205 492.499 150.205Z" fill="#FFB8B8"/>
<path d="M522.328 267.624H462.75L462.822 267.161C462.929 266.468 473.44 197.612 465.688 175.086C464.91 172.872 464.978 170.449 465.88 168.283C466.782 166.116 468.453 164.36 470.571 163.352H470.572C481.652 158.134 502.922 151.708 520.875 167.302C523.517 169.634 525.58 172.549 526.901 175.816C528.222 179.083 528.764 182.613 528.486 186.126L522.328 267.624Z" fill="#219653"/>
<path d="M474.193 207.788L447.371 202.346L459.943 172.552C460.696 169.666 462.562 167.197 465.133 165.685C467.704 164.174 470.769 163.743 473.656 164.489C476.544 165.234 479.018 167.095 480.536 169.662C482.053 172.229 482.491 175.293 481.753 178.182L474.193 207.788Z" fill="#219653"/>
<path d="M508.546 217.892L506.934 180.927C505.711 173.979 509.689 167.41 515.806 166.336C521.926 165.266 527.901 170.086 529.129 177.085L535.19 211.625L508.546 217.892Z" fill="#219653"/>
<path d="M520.346 263.199C529.933 299.709 530.979 346.128 528.392 396.762L515.519 395.153L492.185 298.601L479.312 396.762L464.829 395.958C460.502 342.83 456.29 297.221 463.22 267.222L520.346 263.199Z" fill="#2F2E41"/>
<path d="M505.52 145.716C501.833 149.643 494.987 147.535 494.506 142.17C494.469 141.753 494.471 141.334 494.515 140.918C494.763 138.542 496.135 136.384 495.807 133.875C495.732 133.251 495.5 132.655 495.131 132.146C492.193 128.212 485.297 133.906 482.524 130.344C480.824 128.161 482.822 124.722 481.518 122.282C479.796 119.061 474.696 120.65 471.497 118.885C467.939 116.923 468.152 111.463 470.494 108.142C473.351 104.092 478.36 101.931 483.306 101.619C488.253 101.308 493.165 102.645 497.783 104.445C503.03 106.489 508.233 109.315 511.461 113.929C515.388 119.54 515.766 127.082 513.802 133.643C512.607 137.634 508.531 142.509 505.52 145.716Z" fill="#2F2E41"/>
<path d="M675.847 418.104H81.8176C81.564 418.103 81.3211 418.002 81.142 417.822C80.9629 417.643 80.8624 417.4 80.8624 417.146C80.8624 416.892 80.9629 416.649 81.142 416.47C81.3211 416.29 81.564 416.189 81.8176 416.188H675.847C676.101 416.189 676.344 416.29 676.523 416.47C676.702 416.649 676.803 416.892 676.803 417.146C676.803 417.4 676.702 417.643 676.523 417.822C676.344 418.002 676.101 418.103 675.847 418.104Z" fill="#3F3D56"/>
<path d="M377.356 330.287H272.759C271.381 330.295 270.057 329.756 269.076 328.788C268.096 327.82 267.539 326.503 267.529 325.126V91.656C267.539 90.2785 268.096 88.9614 269.076 87.9937C270.057 87.0261 271.381 86.4868 272.759 86.4942H377.356C378.734 86.4868 380.058 87.0261 381.039 87.9937C382.019 88.9614 382.576 90.2785 382.586 91.656V325.126C382.576 326.503 382.019 327.82 381.039 328.788C380.058 329.756 378.734 330.295 377.356 330.287Z" fill="white"/>
<path d="M382.586 162.038H267.529V163.647H382.586V162.038Z" fill="#CCCCCC"/>
<path d="M382.988 253.851H267.931V255.46H382.988V253.851Z" fill="#CCCCCC"/>
<path d="M305.345 86.4943H303.736V331.092H305.345V86.4943Z" fill="#CCCCCC"/>
<path d="M345.575 86.4943H343.965V331.092H345.575V86.4943Z" fill="#CCCCCC"/>
</g>
<defs>
<clipPath id="clip0_3_321">
<rect width="700" height="418.502" fill="white"/>
</clipPath>
</defs>
</svg>
